<mxfile host="65bd71144e">
    <diagram id="44b4Y6wHeXdyE9PRD648" name="Page-1">
        <mxGraphModel dx="833" dy="855" grid="1" gridSize="10" guides="1" tooltips="1" connect="1" arrows="1" fold="1" page="1" pageScale="1" pageWidth="827" pageHeight="1169" math="0" shadow="0">
            <root>
                <mxCell id="0"/>
                <mxCell id="1" parent="0"/>
                <mxCell id="28" value="" style="endArrow=none;html=1;" parent="1" edge="1">
                    <mxGeometry width="50" height="50" relative="1" as="geometry">
                        <mxPoint x="60" y="800" as="sourcePoint"/>
                        <mxPoint x="360" y="800" as="targetPoint"/>
                    </mxGeometry>
                </mxCell>
                <mxCell id="52" value="Time&lt;br style=&quot;font-size: 19px;&quot;&gt;" style="text;html=1;align=center;verticalAlign=middle;resizable=0;points=[];autosize=1;strokeColor=none;fontSize=19;" parent="1" vertex="1">
                    <mxGeometry x="170" y="865" width="60" height="30" as="geometry"/>
                </mxCell>
                <mxCell id="53" value="0m" style="text;html=1;align=center;verticalAlign=middle;resizable=0;points=[];autosize=1;strokeColor=none;fontSize=19;" parent="1" vertex="1">
                    <mxGeometry x="50" y="815" width="40" height="30" as="geometry"/>
                </mxCell>
                <mxCell id="54" value="10m" style="text;html=1;align=center;verticalAlign=middle;resizable=0;points=[];autosize=1;strokeColor=none;fontSize=19;" parent="1" vertex="1">
                    <mxGeometry x="160" y="815" width="50" height="30" as="geometry"/>
                </mxCell>
                <mxCell id="55" value="20m" style="text;html=1;align=center;verticalAlign=middle;resizable=0;points=[];autosize=1;strokeColor=none;fontSize=19;" parent="1" vertex="1">
                    <mxGeometry x="250" y="815" width="50" height="30" as="geometry"/>
                </mxCell>
                <mxCell id="56" value="30m" style="text;html=1;align=center;verticalAlign=middle;resizable=0;points=[];autosize=1;strokeColor=none;fontSize=19;" parent="1" vertex="1">
                    <mxGeometry x="345" y="815" width="50" height="30" as="geometry"/>
                </mxCell>
                <mxCell id="71" value="" style="group" vertex="1" connectable="0" parent="1">
                    <mxGeometry x="60" y="505" width="240" height="80" as="geometry"/>
                </mxCell>
                <mxCell id="45" value="Peer1" style="whiteSpace=wrap;html=1;align=center;verticalAlign=top;" parent="71" vertex="1">
                    <mxGeometry width="240" height="80" as="geometry"/>
                </mxCell>
                <mxCell id="46" value="Task1" style="whiteSpace=wrap;html=1;align=center;verticalAlign=top;" parent="71" vertex="1">
                    <mxGeometry x="20.36964285714285" y="30" width="77.84464285714286" height="30" as="geometry"/>
                </mxCell>
                <mxCell id="47" value="Task2" style="whiteSpace=wrap;html=1;align=center;verticalAlign=top;" parent="71" vertex="1">
                    <mxGeometry x="108.03571428571428" y="30" width="77.84464285714286" height="30" as="geometry"/>
                </mxCell>
                <mxCell id="66" value="3" style="whiteSpace=wrap;html=1;align=center;verticalAlign=top;" vertex="1" parent="71">
                    <mxGeometry x="190" y="30" width="10" height="30" as="geometry"/>
                </mxCell>
                <mxCell id="68" value="4" style="whiteSpace=wrap;html=1;align=center;verticalAlign=top;" vertex="1" parent="71">
                    <mxGeometry x="200" y="30" width="10" height="30" as="geometry"/>
                </mxCell>
                <mxCell id="69" value="5" style="whiteSpace=wrap;html=1;align=center;verticalAlign=top;" vertex="1" parent="71">
                    <mxGeometry x="210" y="30" width="10" height="30" as="geometry"/>
                </mxCell>
                <mxCell id="70" value="6" style="whiteSpace=wrap;html=1;align=center;verticalAlign=top;" vertex="1" parent="71">
                    <mxGeometry x="220" y="30" width="10" height="30" as="geometry"/>
                </mxCell>
                <mxCell id="72" value="" style="group" vertex="1" connectable="0" parent="1">
                    <mxGeometry x="60" y="600" width="240" height="80" as="geometry"/>
                </mxCell>
                <mxCell id="73" value="Peer2" style="whiteSpace=wrap;html=1;align=center;verticalAlign=top;" vertex="1" parent="72">
                    <mxGeometry width="240" height="80" as="geometry"/>
                </mxCell>
                <mxCell id="74" value="Task3" style="whiteSpace=wrap;html=1;align=center;verticalAlign=top;" vertex="1" parent="72">
                    <mxGeometry x="20.36964285714285" y="30" width="77.84464285714286" height="30" as="geometry"/>
                </mxCell>
                <mxCell id="75" value="Task4" style="whiteSpace=wrap;html=1;align=center;verticalAlign=top;" vertex="1" parent="72">
                    <mxGeometry x="108.03571428571428" y="30" width="77.84464285714286" height="30" as="geometry"/>
                </mxCell>
                <mxCell id="76" value="1" style="whiteSpace=wrap;html=1;align=center;verticalAlign=top;" vertex="1" parent="72">
                    <mxGeometry x="190" y="30" width="10" height="30" as="geometry"/>
                </mxCell>
                <mxCell id="77" value="2" style="whiteSpace=wrap;html=1;align=center;verticalAlign=top;" vertex="1" parent="72">
                    <mxGeometry x="200" y="30" width="10" height="30" as="geometry"/>
                </mxCell>
                <mxCell id="78" value="5" style="whiteSpace=wrap;html=1;align=center;verticalAlign=top;" vertex="1" parent="72">
                    <mxGeometry x="210" y="30" width="10" height="30" as="geometry"/>
                </mxCell>
                <mxCell id="79" value="6" style="whiteSpace=wrap;html=1;align=center;verticalAlign=top;" vertex="1" parent="72">
                    <mxGeometry x="220" y="30" width="10" height="30" as="geometry"/>
                </mxCell>
                <mxCell id="80" value="" style="group" vertex="1" connectable="0" parent="1">
                    <mxGeometry x="60" y="700" width="240" height="80" as="geometry"/>
                </mxCell>
                <mxCell id="81" value="Peer3" style="whiteSpace=wrap;html=1;align=center;verticalAlign=top;" vertex="1" parent="80">
                    <mxGeometry width="240" height="80" as="geometry"/>
                </mxCell>
                <mxCell id="82" value="Task5" style="whiteSpace=wrap;html=1;align=center;verticalAlign=top;" vertex="1" parent="80">
                    <mxGeometry x="20.36964285714285" y="30" width="77.84464285714286" height="30" as="geometry"/>
                </mxCell>
                <mxCell id="83" value="Task6" style="whiteSpace=wrap;html=1;align=center;verticalAlign=top;" vertex="1" parent="80">
                    <mxGeometry x="108.03571428571428" y="30" width="77.84464285714286" height="30" as="geometry"/>
                </mxCell>
                <mxCell id="84" value="3" style="whiteSpace=wrap;html=1;align=center;verticalAlign=top;" vertex="1" parent="80">
                    <mxGeometry x="190" y="30" width="10" height="30" as="geometry"/>
                </mxCell>
                <mxCell id="85" value="4" style="whiteSpace=wrap;html=1;align=center;verticalAlign=top;" vertex="1" parent="80">
                    <mxGeometry x="200" y="30" width="10" height="30" as="geometry"/>
                </mxCell>
                <mxCell id="86" value="1" style="whiteSpace=wrap;html=1;align=center;verticalAlign=top;" vertex="1" parent="80">
                    <mxGeometry x="210" y="30" width="10" height="30" as="geometry"/>
                </mxCell>
                <mxCell id="87" value="2" style="whiteSpace=wrap;html=1;align=center;verticalAlign=top;" vertex="1" parent="80">
                    <mxGeometry x="220" y="30" width="10" height="30" as="geometry"/>
                </mxCell>
            </root>
        </mxGraphModel>
    </diagram>
</mxfile>